M48
; DRILL file {KiCad (5.1.6-0-10_14)} date Monday, November 15, 2021 at 11:18:51 AM
; FORMAT={-:-/ absolute / inch / decimal}
; #@! TF.CreationDate,2021-11-15T11:18:51-05:00
; #@! TF.GenerationSoftware,Kicad,Pcbnew,(5.1.6-0-10_14)
FMAT,2
INCH
T1C0.0100
T2C0.0236
T3C0.0256
T4C0.0276
T5C0.0300
T6C0.0335
T7C0.1575
%
G90
G05
T1
X2.7756Y-3.2087
X2.7756Y-3.2874
X2.7756Y-3.3661
X2.7756Y-3.4449
X2.7756Y-3.5236
X2.7756Y-3.6024
X2.7756Y-3.6811
X2.7756Y-3.7598
X2.7756Y-3.8386
X2.7756Y-3.9173
X2.7756Y-3.9961
X2.7862Y-4.1031
X2.815Y-3.248
X2.815Y-3.3268
X2.815Y-3.4055
X2.815Y-3.4843
X2.815Y-3.563
X2.815Y-3.6417
X2.815Y-3.7205
X2.815Y-3.7992
X2.815Y-3.878
X2.815Y-3.9567
X2.8165Y-3.0291
X2.8272Y-4.1445
X2.8571Y-2.9886
X2.8681Y-4.185
X2.8705Y-4.0197
X2.898Y-2.9476
X2.9008Y-3.2807
X2.9065Y-3.1194
X2.9091Y-4.2256
X2.9114Y-3.635
X2.9386Y-2.9071
X2.9476Y-3.0787
X2.9504Y-4.2669
X2.9886Y-3.0374
X2.9929Y-4.1421
X2.9957Y-3.2583
X3.0323Y-2.9976
X3.0457Y-3.2539
X3.0534Y-3.5978
X3.0575Y-3.9665
X3.0815Y-3.6055
X3.0854Y-3.9665
X3.1283Y-3.8421
X3.1996Y-3.4756
X3.2075Y-3.6634
X3.2161Y-3.4524
X3.2291Y-3.4307
X3.2458Y-3.4079
X3.2508Y-3.6064
X3.2663Y-3.2378
X3.2722Y-4.036
X3.2941Y-4.0579
X3.3071Y-3.5827
X3.3071Y-3.6614
X3.3071Y-3.7205
X3.3071Y-3.7795
X3.3531Y-3.952
X3.3661Y-3.5827
X3.3661Y-3.6614
X3.3661Y-3.7205
X3.3661Y-3.7795
X3.3876Y-4.0243
X3.422Y-3.5472
X3.4252Y-3.5827
X3.4252Y-3.6614
X3.4252Y-3.7205
X3.4252Y-3.7795
X3.4421Y-4.0197
X3.4606Y-3.952
X3.4843Y-3.6614
X3.4843Y-3.7205
X3.4843Y-3.7795
X3.4867Y-3.9432
X3.5457Y-3.7472
X3.5457Y-3.7701
X3.5878Y-3.8331
X3.6461Y-3.9734
X3.672Y-3.9634
X3.6772Y-3.5965
X3.6894Y-3.6173
X3.6937Y-3.6949
X3.7102Y-3.6381
X3.7102Y-3.5374
X3.7102Y-3.7177
X3.7496Y-3.774
X3.7498Y-3.8122
X3.7524Y-3.8724
X3.7551Y-3.9409
X3.773Y-3.9035
X3.7815Y-3.3929
X3.7815Y-3.4146
X3.7876Y-3.5592
X3.7893Y-3.7731
X3.7937Y-3.5285
X3.794Y-3.5055
X3.7957Y-3.6714
X3.7959Y-3.6383
X3.801Y-3.9847
X3.8035Y-3.2539
X3.8109Y-3.6203
X3.8269Y-3.5896
X3.8275Y-3.7907
X3.8398Y-3.9402
X3.872Y-3.215
X3.9051Y-3.461
X3.9071Y-3.2815
X3.9079Y-3.3067
X3.9165Y-3.9071
X3.9165Y-4.0079
X3.9173Y-3.6181
X3.9173Y-3.6772
X3.9285Y-3.4621
X3.9319Y-3.4283
X3.9335Y-3.9252
X3.9449Y-3.6457
X3.9568Y-3.4658
X3.9606Y-4.0047
X3.9685Y-3.6181
X3.9685Y-3.6772
X3.9808Y-3.465
X3.9911Y-3.3272
X4.0079Y-4.0024
X4.0189Y-3.3291
X4.0197Y-3.5701
X4.0224Y-3.5441
X4.0358Y-3.9441
X4.0472Y-3.5527
X4.0536Y-3.5846
X4.0674Y-3.9066
X4.0717Y-3.9346
X4.0726Y-3.5547
X4.0838Y-3.7292
X4.0839Y-3.7062
X4.0841Y-3.7522
X4.0843Y-3.7752
X4.0882Y-3.4382
X4.0889Y-3.8981
X4.1051Y-3.4559
X4.1088Y-3.8865
X4.1106Y-3.9634
X4.1107Y-3.9366
X4.1169Y-3.4756
X4.1228Y-4.0319
X4.1273Y-3.4961
X4.1276Y-3.6921
X4.1445Y-3.9851
X4.1484Y-3.35
X4.1496Y-3.4296
X4.1505Y-3.6784
X4.1614Y-3.8161
X4.1615Y-3.8393
X4.1866Y-3.798
X4.2102Y-3.9374
X4.2307Y-3.2343
X4.2358Y-3.3453
X4.2492Y-3.674
X4.2681Y-3.6594
X4.3189Y-3.8161
X4.3204Y-3.5759
X4.3248Y-3.5004
X4.3417Y-3.9031
X4.3448Y-3.5758
X4.3636Y-3.2705
X4.365Y-3.848
X4.3678Y-3.576
X4.3809Y-3.8793
X4.3908Y-3.576
X4.4217Y-3.1965
X4.4543Y-3.4354
X4.4583Y-3.6307
X4.4646Y-3.1965
X4.4654Y-3.7315
X4.4858Y-3.7744
X4.5185Y-3.7087
X4.5311Y-3.7435
X4.5394Y-3.5748
X4.5394Y-3.6378
X4.5488Y-3.4368
X4.5512Y-3.8406
X4.5551Y-3.6063
X4.5665Y-3.7772
X4.576Y-3.4352
X4.599Y-3.4366
X4.622Y-3.4368
X4.6988Y-3.4224
X4.7185Y-3.7012
X4.7937Y-3.9098
T2
X3.9713Y-2.8937
X4.0559Y-2.8937
X4.1406Y-2.8937
X4.2252Y-2.8937
X3.9579Y-4.3189
X4.0425Y-4.3189
X4.1272Y-4.3189
X4.2118Y-4.3189
X3.3797Y-2.8937
X3.4644Y-2.8937
X3.549Y-2.8937
X3.9579Y-4.1614
X4.0425Y-4.1614
X4.1272Y-4.1614
X4.2118Y-4.1614
X3.3715Y-4.1614
X3.4561Y-4.1614
X3.3795Y-3.0512
X3.4642Y-3.0512
X3.5488Y-3.0512
X3.5799Y-4.3189
X3.6646Y-4.3189
X3.7492Y-4.3189
X3.8339Y-4.3189
X4.8457Y-3.1102
X4.8457Y-3.1949
X4.8457Y-3.2795
X4.0559Y-3.0512
X4.1406Y-3.0512
X4.2252Y-3.0512
X4.8457Y-3.9331
X4.8457Y-4.0177
X4.8457Y-4.1024
X3.5799Y-4.1614
X3.6646Y-4.1614
X3.7492Y-4.1614
X3.8339Y-4.1614
X3.3715Y-4.3189
X3.4561Y-4.3189
T5
X4.8555Y-3.372
X4.8555Y-3.439
X4.8555Y-3.5059
X4.8555Y-3.5728
X4.8555Y-3.6398
X4.8555Y-3.7067
X4.8555Y-3.7736
X4.8555Y-3.8406
T6
X4.6502Y-2.914
X4.7671Y-3.0309
X4.6502Y-4.2986
X4.7671Y-4.1817
T7
X3.2028Y-3.0059
X3.2028Y-4.2067
X4.4035Y-4.2067
X4.4035Y-3.0059
T3
G00X3.6713Y-3.0323
M15
G01X3.6713Y-3.048
M16
G05
G00X3.8618Y-3.0323
M15
G01X3.8618Y-3.048
M16
G05
T4
G00X3.6591Y-2.9122
M15
G01X3.6591Y-2.9319
M16
G05
G00X3.874Y-2.9122
M15
G01X3.874Y-2.9319
M16
G05
T0
M30
