%TF.GenerationSoftware,KiCad,Pcbnew,(5.1.6-0-10_14)*%
%TF.CreationDate,2021-11-15T11:18:40-05:00*%
%TF.ProjectId,Autodrone,4175746f-6472-46f6-9e65-2e6b69636164,rev?*%
%TF.SameCoordinates,Original*%
%TF.FileFunction,Paste,Top*%
%TF.FilePolarity,Positive*%
%FSLAX46Y46*%
G04 Gerber Fmt 4.6, Leading zero omitted, Abs format (unit mm)*
G04 Created by KiCad (PCBNEW (5.1.6-0-10_14)) date 2021-11-15 11:18:40*
%MOMM*%
%LPD*%
G01*
G04 APERTURE LIST*
%ADD10C,0.152400*%
%ADD11R,1.060000X0.650000*%
%ADD12R,1.100000X1.100000*%
%ADD13R,0.350000X0.500000*%
%ADD14R,1.070100X1.899920*%
%ADD15R,1.430000X2.500000*%
%ADD16R,0.400000X1.650000*%
%ADD17R,2.000000X1.500000*%
%ADD18R,1.825000X0.700000*%
%ADD19R,1.350000X2.000000*%
%ADD20R,6.908800X3.098800*%
%ADD21R,0.355600X1.358900*%
%ADD22R,1.100000X1.300000*%
%ADD23R,1.700000X0.900000*%
%ADD24R,0.800000X0.900000*%
G04 APERTURE END LIST*
D10*
%TO.C,U9*%
X111382640Y-85540600D02*
X111382640Y-86890000D01*
X112564400Y-85540600D02*
X111382640Y-85540600D01*
X112564400Y-86890000D02*
X112564400Y-85540600D01*
X111382640Y-86890000D02*
X112564400Y-86890000D01*
X110000880Y-85540600D02*
X110000880Y-86890000D01*
X111182640Y-85540600D02*
X110000880Y-85540600D01*
X111182640Y-86890000D02*
X111182640Y-85540600D01*
X110000880Y-86890000D02*
X111182640Y-86890000D01*
X108619120Y-85540600D02*
X108619120Y-86890000D01*
X109800880Y-85540600D02*
X108619120Y-85540600D01*
X109800880Y-86890000D02*
X109800880Y-85540600D01*
X108619120Y-86890000D02*
X109800880Y-86890000D01*
X107237360Y-85540600D02*
X107237360Y-86890000D01*
X108419120Y-85540600D02*
X107237360Y-85540600D01*
X108419120Y-86890000D02*
X108419120Y-85540600D01*
X107237360Y-86890000D02*
X108419120Y-86890000D01*
X105855600Y-85540600D02*
X105855600Y-86890000D01*
X107037360Y-85540600D02*
X105855600Y-85540600D01*
X107037360Y-86890000D02*
X107037360Y-85540600D01*
X105855600Y-86890000D02*
X107037360Y-86890000D01*
X111382640Y-87090000D02*
X111382640Y-88439400D01*
X112564400Y-87090000D02*
X111382640Y-87090000D01*
X112564400Y-88439400D02*
X112564400Y-87090000D01*
X111382640Y-88439400D02*
X112564400Y-88439400D01*
X110000880Y-87090000D02*
X110000880Y-88439400D01*
X111182640Y-87090000D02*
X110000880Y-87090000D01*
X111182640Y-88439400D02*
X111182640Y-87090000D01*
X110000880Y-88439400D02*
X111182640Y-88439400D01*
X108619120Y-87090000D02*
X108619120Y-88439400D01*
X109800880Y-87090000D02*
X108619120Y-87090000D01*
X109800880Y-88439400D02*
X109800880Y-87090000D01*
X108619120Y-88439400D02*
X109800880Y-88439400D01*
X107237360Y-87090000D02*
X107237360Y-88439400D01*
X108419120Y-87090000D02*
X107237360Y-87090000D01*
X108419120Y-88439400D02*
X108419120Y-87090000D01*
X107237360Y-88439400D02*
X108419120Y-88439400D01*
X105855600Y-87090000D02*
X105855600Y-88439400D01*
X107037360Y-87090000D02*
X105855600Y-87090000D01*
X107037360Y-88439400D02*
X107037360Y-87090000D01*
X105855600Y-88439400D02*
X107037360Y-88439400D01*
%TD*%
D11*
%TO.C,U4*%
X98910000Y-87230000D03*
X98910000Y-85330000D03*
X101110000Y-85330000D03*
X101110000Y-86280000D03*
X101110000Y-87230000D03*
%TD*%
%TO.C,U5*%
G36*
G01*
X101375000Y-94125000D02*
X101525000Y-94125000D01*
G75*
G02*
X101600000Y-94200000I0J-75000D01*
G01*
X101600000Y-94900000D01*
G75*
G02*
X101525000Y-94975000I-75000J0D01*
G01*
X101375000Y-94975000D01*
G75*
G02*
X101300000Y-94900000I0J75000D01*
G01*
X101300000Y-94200000D01*
G75*
G02*
X101375000Y-94125000I75000J0D01*
G01*
G37*
G36*
G01*
X100875000Y-94125000D02*
X101025000Y-94125000D01*
G75*
G02*
X101100000Y-94200000I0J-75000D01*
G01*
X101100000Y-94900000D01*
G75*
G02*
X101025000Y-94975000I-75000J0D01*
G01*
X100875000Y-94975000D01*
G75*
G02*
X100800000Y-94900000I0J75000D01*
G01*
X100800000Y-94200000D01*
G75*
G02*
X100875000Y-94125000I75000J0D01*
G01*
G37*
G36*
G01*
X100375000Y-94125000D02*
X100525000Y-94125000D01*
G75*
G02*
X100600000Y-94200000I0J-75000D01*
G01*
X100600000Y-94900000D01*
G75*
G02*
X100525000Y-94975000I-75000J0D01*
G01*
X100375000Y-94975000D01*
G75*
G02*
X100300000Y-94900000I0J75000D01*
G01*
X100300000Y-94200000D01*
G75*
G02*
X100375000Y-94125000I75000J0D01*
G01*
G37*
G36*
G01*
X99875000Y-94125000D02*
X100025000Y-94125000D01*
G75*
G02*
X100100000Y-94200000I0J-75000D01*
G01*
X100100000Y-94900000D01*
G75*
G02*
X100025000Y-94975000I-75000J0D01*
G01*
X99875000Y-94975000D01*
G75*
G02*
X99800000Y-94900000I0J75000D01*
G01*
X99800000Y-94200000D01*
G75*
G02*
X99875000Y-94125000I75000J0D01*
G01*
G37*
G36*
G01*
X99375000Y-94125000D02*
X99525000Y-94125000D01*
G75*
G02*
X99600000Y-94200000I0J-75000D01*
G01*
X99600000Y-94900000D01*
G75*
G02*
X99525000Y-94975000I-75000J0D01*
G01*
X99375000Y-94975000D01*
G75*
G02*
X99300000Y-94900000I0J75000D01*
G01*
X99300000Y-94200000D01*
G75*
G02*
X99375000Y-94125000I75000J0D01*
G01*
G37*
G36*
G01*
X98875000Y-94125000D02*
X99025000Y-94125000D01*
G75*
G02*
X99100000Y-94200000I0J-75000D01*
G01*
X99100000Y-94900000D01*
G75*
G02*
X99025000Y-94975000I-75000J0D01*
G01*
X98875000Y-94975000D01*
G75*
G02*
X98800000Y-94900000I0J75000D01*
G01*
X98800000Y-94200000D01*
G75*
G02*
X98875000Y-94125000I75000J0D01*
G01*
G37*
G36*
G01*
X98675000Y-93775000D02*
X98675000Y-93925000D01*
G75*
G02*
X98600000Y-94000000I-75000J0D01*
G01*
X97900000Y-94000000D01*
G75*
G02*
X97825000Y-93925000I0J75000D01*
G01*
X97825000Y-93775000D01*
G75*
G02*
X97900000Y-93700000I75000J0D01*
G01*
X98600000Y-93700000D01*
G75*
G02*
X98675000Y-93775000I0J-75000D01*
G01*
G37*
G36*
G01*
X98675000Y-93275000D02*
X98675000Y-93425000D01*
G75*
G02*
X98600000Y-93500000I-75000J0D01*
G01*
X97900000Y-93500000D01*
G75*
G02*
X97825000Y-93425000I0J75000D01*
G01*
X97825000Y-93275000D01*
G75*
G02*
X97900000Y-93200000I75000J0D01*
G01*
X98600000Y-93200000D01*
G75*
G02*
X98675000Y-93275000I0J-75000D01*
G01*
G37*
G36*
G01*
X98675000Y-92775000D02*
X98675000Y-92925000D01*
G75*
G02*
X98600000Y-93000000I-75000J0D01*
G01*
X97900000Y-93000000D01*
G75*
G02*
X97825000Y-92925000I0J75000D01*
G01*
X97825000Y-92775000D01*
G75*
G02*
X97900000Y-92700000I75000J0D01*
G01*
X98600000Y-92700000D01*
G75*
G02*
X98675000Y-92775000I0J-75000D01*
G01*
G37*
G36*
G01*
X98675000Y-92275000D02*
X98675000Y-92425000D01*
G75*
G02*
X98600000Y-92500000I-75000J0D01*
G01*
X97900000Y-92500000D01*
G75*
G02*
X97825000Y-92425000I0J75000D01*
G01*
X97825000Y-92275000D01*
G75*
G02*
X97900000Y-92200000I75000J0D01*
G01*
X98600000Y-92200000D01*
G75*
G02*
X98675000Y-92275000I0J-75000D01*
G01*
G37*
G36*
G01*
X98675000Y-91775000D02*
X98675000Y-91925000D01*
G75*
G02*
X98600000Y-92000000I-75000J0D01*
G01*
X97900000Y-92000000D01*
G75*
G02*
X97825000Y-91925000I0J75000D01*
G01*
X97825000Y-91775000D01*
G75*
G02*
X97900000Y-91700000I75000J0D01*
G01*
X98600000Y-91700000D01*
G75*
G02*
X98675000Y-91775000I0J-75000D01*
G01*
G37*
G36*
G01*
X98675000Y-91275000D02*
X98675000Y-91425000D01*
G75*
G02*
X98600000Y-91500000I-75000J0D01*
G01*
X97900000Y-91500000D01*
G75*
G02*
X97825000Y-91425000I0J75000D01*
G01*
X97825000Y-91275000D01*
G75*
G02*
X97900000Y-91200000I75000J0D01*
G01*
X98600000Y-91200000D01*
G75*
G02*
X98675000Y-91275000I0J-75000D01*
G01*
G37*
G36*
G01*
X98875000Y-90225000D02*
X99025000Y-90225000D01*
G75*
G02*
X99100000Y-90300000I0J-75000D01*
G01*
X99100000Y-91000000D01*
G75*
G02*
X99025000Y-91075000I-75000J0D01*
G01*
X98875000Y-91075000D01*
G75*
G02*
X98800000Y-91000000I0J75000D01*
G01*
X98800000Y-90300000D01*
G75*
G02*
X98875000Y-90225000I75000J0D01*
G01*
G37*
G36*
G01*
X99375000Y-90225000D02*
X99525000Y-90225000D01*
G75*
G02*
X99600000Y-90300000I0J-75000D01*
G01*
X99600000Y-91000000D01*
G75*
G02*
X99525000Y-91075000I-75000J0D01*
G01*
X99375000Y-91075000D01*
G75*
G02*
X99300000Y-91000000I0J75000D01*
G01*
X99300000Y-90300000D01*
G75*
G02*
X99375000Y-90225000I75000J0D01*
G01*
G37*
G36*
G01*
X99875000Y-90225000D02*
X100025000Y-90225000D01*
G75*
G02*
X100100000Y-90300000I0J-75000D01*
G01*
X100100000Y-91000000D01*
G75*
G02*
X100025000Y-91075000I-75000J0D01*
G01*
X99875000Y-91075000D01*
G75*
G02*
X99800000Y-91000000I0J75000D01*
G01*
X99800000Y-90300000D01*
G75*
G02*
X99875000Y-90225000I75000J0D01*
G01*
G37*
G36*
G01*
X100375000Y-90225000D02*
X100525000Y-90225000D01*
G75*
G02*
X100600000Y-90300000I0J-75000D01*
G01*
X100600000Y-91000000D01*
G75*
G02*
X100525000Y-91075000I-75000J0D01*
G01*
X100375000Y-91075000D01*
G75*
G02*
X100300000Y-91000000I0J75000D01*
G01*
X100300000Y-90300000D01*
G75*
G02*
X100375000Y-90225000I75000J0D01*
G01*
G37*
G36*
G01*
X100875000Y-90225000D02*
X101025000Y-90225000D01*
G75*
G02*
X101100000Y-90300000I0J-75000D01*
G01*
X101100000Y-91000000D01*
G75*
G02*
X101025000Y-91075000I-75000J0D01*
G01*
X100875000Y-91075000D01*
G75*
G02*
X100800000Y-91000000I0J75000D01*
G01*
X100800000Y-90300000D01*
G75*
G02*
X100875000Y-90225000I75000J0D01*
G01*
G37*
G36*
G01*
X101375000Y-90225000D02*
X101525000Y-90225000D01*
G75*
G02*
X101600000Y-90300000I0J-75000D01*
G01*
X101600000Y-91000000D01*
G75*
G02*
X101525000Y-91075000I-75000J0D01*
G01*
X101375000Y-91075000D01*
G75*
G02*
X101300000Y-91000000I0J75000D01*
G01*
X101300000Y-90300000D01*
G75*
G02*
X101375000Y-90225000I75000J0D01*
G01*
G37*
G36*
G01*
X102575000Y-91275000D02*
X102575000Y-91425000D01*
G75*
G02*
X102500000Y-91500000I-75000J0D01*
G01*
X101800000Y-91500000D01*
G75*
G02*
X101725000Y-91425000I0J75000D01*
G01*
X101725000Y-91275000D01*
G75*
G02*
X101800000Y-91200000I75000J0D01*
G01*
X102500000Y-91200000D01*
G75*
G02*
X102575000Y-91275000I0J-75000D01*
G01*
G37*
G36*
G01*
X102575000Y-91775000D02*
X102575000Y-91925000D01*
G75*
G02*
X102500000Y-92000000I-75000J0D01*
G01*
X101800000Y-92000000D01*
G75*
G02*
X101725000Y-91925000I0J75000D01*
G01*
X101725000Y-91775000D01*
G75*
G02*
X101800000Y-91700000I75000J0D01*
G01*
X102500000Y-91700000D01*
G75*
G02*
X102575000Y-91775000I0J-75000D01*
G01*
G37*
G36*
G01*
X102575000Y-92275000D02*
X102575000Y-92425000D01*
G75*
G02*
X102500000Y-92500000I-75000J0D01*
G01*
X101800000Y-92500000D01*
G75*
G02*
X101725000Y-92425000I0J75000D01*
G01*
X101725000Y-92275000D01*
G75*
G02*
X101800000Y-92200000I75000J0D01*
G01*
X102500000Y-92200000D01*
G75*
G02*
X102575000Y-92275000I0J-75000D01*
G01*
G37*
G36*
G01*
X102575000Y-92775000D02*
X102575000Y-92925000D01*
G75*
G02*
X102500000Y-93000000I-75000J0D01*
G01*
X101800000Y-93000000D01*
G75*
G02*
X101725000Y-92925000I0J75000D01*
G01*
X101725000Y-92775000D01*
G75*
G02*
X101800000Y-92700000I75000J0D01*
G01*
X102500000Y-92700000D01*
G75*
G02*
X102575000Y-92775000I0J-75000D01*
G01*
G37*
G36*
G01*
X102575000Y-93275000D02*
X102575000Y-93425000D01*
G75*
G02*
X102500000Y-93500000I-75000J0D01*
G01*
X101800000Y-93500000D01*
G75*
G02*
X101725000Y-93425000I0J75000D01*
G01*
X101725000Y-93275000D01*
G75*
G02*
X101800000Y-93200000I75000J0D01*
G01*
X102500000Y-93200000D01*
G75*
G02*
X102575000Y-93275000I0J-75000D01*
G01*
G37*
G36*
G01*
X102575000Y-93775000D02*
X102575000Y-93925000D01*
G75*
G02*
X102500000Y-94000000I-75000J0D01*
G01*
X101800000Y-94000000D01*
G75*
G02*
X101725000Y-93925000I0J75000D01*
G01*
X101725000Y-93775000D01*
G75*
G02*
X101800000Y-93700000I75000J0D01*
G01*
X102500000Y-93700000D01*
G75*
G02*
X102575000Y-93775000I0J-75000D01*
G01*
G37*
%TD*%
%TO.C,C19*%
G36*
G01*
X98285000Y-95800000D02*
X98285000Y-96140000D01*
G75*
G02*
X98140000Y-96285000I-145000J0D01*
G01*
X97850000Y-96285000D01*
G75*
G02*
X97705000Y-96140000I0J145000D01*
G01*
X97705000Y-95800000D01*
G75*
G02*
X97850000Y-95655000I145000J0D01*
G01*
X98140000Y-95655000D01*
G75*
G02*
X98285000Y-95800000I0J-145000D01*
G01*
G37*
G36*
G01*
X99255000Y-95800000D02*
X99255000Y-96140000D01*
G75*
G02*
X99110000Y-96285000I-145000J0D01*
G01*
X98820000Y-96285000D01*
G75*
G02*
X98675000Y-96140000I0J145000D01*
G01*
X98675000Y-95800000D01*
G75*
G02*
X98820000Y-95655000I145000J0D01*
G01*
X99110000Y-95655000D01*
G75*
G02*
X99255000Y-95800000I0J-145000D01*
G01*
G37*
%TD*%
%TO.C,C18*%
G36*
G01*
X97250000Y-89755000D02*
X96910000Y-89755000D01*
G75*
G02*
X96765000Y-89610000I0J145000D01*
G01*
X96765000Y-89320000D01*
G75*
G02*
X96910000Y-89175000I145000J0D01*
G01*
X97250000Y-89175000D01*
G75*
G02*
X97395000Y-89320000I0J-145000D01*
G01*
X97395000Y-89610000D01*
G75*
G02*
X97250000Y-89755000I-145000J0D01*
G01*
G37*
G36*
G01*
X97250000Y-90725000D02*
X96910000Y-90725000D01*
G75*
G02*
X96765000Y-90580000I0J145000D01*
G01*
X96765000Y-90290000D01*
G75*
G02*
X96910000Y-90145000I145000J0D01*
G01*
X97250000Y-90145000D01*
G75*
G02*
X97395000Y-90290000I0J-145000D01*
G01*
X97395000Y-90580000D01*
G75*
G02*
X97250000Y-90725000I-145000J0D01*
G01*
G37*
%TD*%
D12*
%TO.C,D4*%
X97710000Y-83390000D03*
X100510000Y-83390000D03*
%TD*%
%TO.C,J5*%
G36*
G01*
X121325400Y-87400000D02*
X120024600Y-87400000D01*
G75*
G02*
X119775000Y-87150400I0J249600D01*
G01*
X119775000Y-86449600D01*
G75*
G02*
X120024600Y-86200000I249600J0D01*
G01*
X121325400Y-86200000D01*
G75*
G02*
X121575000Y-86449600I0J-249600D01*
G01*
X121575000Y-87150400D01*
G75*
G02*
X121325400Y-87400000I-249600J0D01*
G01*
G37*
G36*
G01*
X121325400Y-97000000D02*
X120024600Y-97000000D01*
G75*
G02*
X119775000Y-96750400I0J249600D01*
G01*
X119775000Y-96049600D01*
G75*
G02*
X120024600Y-95800000I249600J0D01*
G01*
X121325400Y-95800000D01*
G75*
G02*
X121575000Y-96049600I0J-249600D01*
G01*
X121575000Y-96750400D01*
G75*
G02*
X121325400Y-97000000I-249600J0D01*
G01*
G37*
G36*
G01*
X117425000Y-88400000D02*
X116175000Y-88400000D01*
G75*
G02*
X116025000Y-88250000I0J150000D01*
G01*
X116025000Y-87950000D01*
G75*
G02*
X116175000Y-87800000I150000J0D01*
G01*
X117425000Y-87800000D01*
G75*
G02*
X117575000Y-87950000I0J-150000D01*
G01*
X117575000Y-88250000D01*
G75*
G02*
X117425000Y-88400000I-150000J0D01*
G01*
G37*
G36*
G01*
X117425000Y-89400000D02*
X116175000Y-89400000D01*
G75*
G02*
X116025000Y-89250000I0J150000D01*
G01*
X116025000Y-88950000D01*
G75*
G02*
X116175000Y-88800000I150000J0D01*
G01*
X117425000Y-88800000D01*
G75*
G02*
X117575000Y-88950000I0J-150000D01*
G01*
X117575000Y-89250000D01*
G75*
G02*
X117425000Y-89400000I-150000J0D01*
G01*
G37*
G36*
G01*
X117425000Y-90400000D02*
X116175000Y-90400000D01*
G75*
G02*
X116025000Y-90250000I0J150000D01*
G01*
X116025000Y-89950000D01*
G75*
G02*
X116175000Y-89800000I150000J0D01*
G01*
X117425000Y-89800000D01*
G75*
G02*
X117575000Y-89950000I0J-150000D01*
G01*
X117575000Y-90250000D01*
G75*
G02*
X117425000Y-90400000I-150000J0D01*
G01*
G37*
G36*
G01*
X117425000Y-91400000D02*
X116175000Y-91400000D01*
G75*
G02*
X116025000Y-91250000I0J150000D01*
G01*
X116025000Y-90950000D01*
G75*
G02*
X116175000Y-90800000I150000J0D01*
G01*
X117425000Y-90800000D01*
G75*
G02*
X117575000Y-90950000I0J-150000D01*
G01*
X117575000Y-91250000D01*
G75*
G02*
X117425000Y-91400000I-150000J0D01*
G01*
G37*
G36*
G01*
X117425000Y-92400000D02*
X116175000Y-92400000D01*
G75*
G02*
X116025000Y-92250000I0J150000D01*
G01*
X116025000Y-91950000D01*
G75*
G02*
X116175000Y-91800000I150000J0D01*
G01*
X117425000Y-91800000D01*
G75*
G02*
X117575000Y-91950000I0J-150000D01*
G01*
X117575000Y-92250000D01*
G75*
G02*
X117425000Y-92400000I-150000J0D01*
G01*
G37*
G36*
G01*
X117425000Y-93400000D02*
X116175000Y-93400000D01*
G75*
G02*
X116025000Y-93250000I0J150000D01*
G01*
X116025000Y-92950000D01*
G75*
G02*
X116175000Y-92800000I150000J0D01*
G01*
X117425000Y-92800000D01*
G75*
G02*
X117575000Y-92950000I0J-150000D01*
G01*
X117575000Y-93250000D01*
G75*
G02*
X117425000Y-93400000I-150000J0D01*
G01*
G37*
G36*
G01*
X117425000Y-94400000D02*
X116175000Y-94400000D01*
G75*
G02*
X116025000Y-94250000I0J150000D01*
G01*
X116025000Y-93950000D01*
G75*
G02*
X116175000Y-93800000I150000J0D01*
G01*
X117425000Y-93800000D01*
G75*
G02*
X117575000Y-93950000I0J-150000D01*
G01*
X117575000Y-94250000D01*
G75*
G02*
X117425000Y-94400000I-150000J0D01*
G01*
G37*
G36*
G01*
X117425000Y-95400000D02*
X116175000Y-95400000D01*
G75*
G02*
X116025000Y-95250000I0J150000D01*
G01*
X116025000Y-94950000D01*
G75*
G02*
X116175000Y-94800000I150000J0D01*
G01*
X117425000Y-94800000D01*
G75*
G02*
X117575000Y-94950000I0J-150000D01*
G01*
X117575000Y-95250000D01*
G75*
G02*
X117425000Y-95400000I-150000J0D01*
G01*
G37*
%TD*%
D13*
%TO.C,U6*%
X97125000Y-100840000D03*
X97775000Y-99240000D03*
X98425000Y-99240000D03*
X99075000Y-99240000D03*
X97775000Y-100840000D03*
X98425000Y-100840000D03*
X99075000Y-100840000D03*
X97125000Y-99240000D03*
%TD*%
%TO.C,FB2*%
G36*
G01*
X103006250Y-84170000D02*
X102493750Y-84170000D01*
G75*
G02*
X102275000Y-83951250I0J218750D01*
G01*
X102275000Y-83513750D01*
G75*
G02*
X102493750Y-83295000I218750J0D01*
G01*
X103006250Y-83295000D01*
G75*
G02*
X103225000Y-83513750I0J-218750D01*
G01*
X103225000Y-83951250D01*
G75*
G02*
X103006250Y-84170000I-218750J0D01*
G01*
G37*
G36*
G01*
X103006250Y-85745000D02*
X102493750Y-85745000D01*
G75*
G02*
X102275000Y-85526250I0J218750D01*
G01*
X102275000Y-85088750D01*
G75*
G02*
X102493750Y-84870000I218750J0D01*
G01*
X103006250Y-84870000D01*
G75*
G02*
X103225000Y-85088750I0J-218750D01*
G01*
X103225000Y-85526250D01*
G75*
G02*
X103006250Y-85745000I-218750J0D01*
G01*
G37*
%TD*%
%TO.C,D11*%
G36*
G01*
X72705180Y-78468009D02*
X73067572Y-78105616D01*
G75*
G02*
X73376932Y-78105616I154680J-154680D01*
G01*
X73686291Y-78414975D01*
G75*
G02*
X73686291Y-78724335I-154680J-154680D01*
G01*
X73323898Y-79086728D01*
G75*
G02*
X73014538Y-79086728I-154680J154680D01*
G01*
X72705179Y-78777369D01*
G75*
G02*
X72705179Y-78468009I154680J154680D01*
G01*
G37*
G36*
G01*
X71591486Y-77354315D02*
X71953878Y-76991922D01*
G75*
G02*
X72263238Y-76991922I154680J-154680D01*
G01*
X72572597Y-77301281D01*
G75*
G02*
X72572597Y-77610641I-154680J-154680D01*
G01*
X72210204Y-77973034D01*
G75*
G02*
X71900844Y-77973034I-154680J154680D01*
G01*
X71591485Y-77663675D01*
G75*
G02*
X71591485Y-77354315I154680J154680D01*
G01*
G37*
%TD*%
%TO.C,D9*%
G36*
G01*
X73737556Y-77435633D02*
X74099948Y-77073240D01*
G75*
G02*
X74409308Y-77073240I154680J-154680D01*
G01*
X74718667Y-77382599D01*
G75*
G02*
X74718667Y-77691959I-154680J-154680D01*
G01*
X74356274Y-78054352D01*
G75*
G02*
X74046914Y-78054352I-154680J154680D01*
G01*
X73737555Y-77744993D01*
G75*
G02*
X73737555Y-77435633I154680J154680D01*
G01*
G37*
G36*
G01*
X72623862Y-76321939D02*
X72986254Y-75959546D01*
G75*
G02*
X73295614Y-75959546I154680J-154680D01*
G01*
X73604973Y-76268905D01*
G75*
G02*
X73604973Y-76578265I-154680J-154680D01*
G01*
X73242580Y-76940658D01*
G75*
G02*
X72933220Y-76940658I-154680J154680D01*
G01*
X72623861Y-76631299D01*
G75*
G02*
X72623861Y-76321939I154680J154680D01*
G01*
G37*
%TD*%
%TO.C,D7*%
G36*
G01*
X74769932Y-76403257D02*
X75132324Y-76040864D01*
G75*
G02*
X75441684Y-76040864I154680J-154680D01*
G01*
X75751043Y-76350223D01*
G75*
G02*
X75751043Y-76659583I-154680J-154680D01*
G01*
X75388650Y-77021976D01*
G75*
G02*
X75079290Y-77021976I-154680J154680D01*
G01*
X74769931Y-76712617D01*
G75*
G02*
X74769931Y-76403257I154680J154680D01*
G01*
G37*
G36*
G01*
X73656238Y-75289563D02*
X74018630Y-74927170D01*
G75*
G02*
X74327990Y-74927170I154680J-154680D01*
G01*
X74637349Y-75236529D01*
G75*
G02*
X74637349Y-75545889I-154680J-154680D01*
G01*
X74274956Y-75908282D01*
G75*
G02*
X73965596Y-75908282I-154680J154680D01*
G01*
X73656237Y-75598923D01*
G75*
G02*
X73656237Y-75289563I154680J154680D01*
G01*
G37*
%TD*%
%TO.C,D5*%
G36*
G01*
X75802308Y-75370881D02*
X76164700Y-75008488D01*
G75*
G02*
X76474060Y-75008488I154680J-154680D01*
G01*
X76783419Y-75317847D01*
G75*
G02*
X76783419Y-75627207I-154680J-154680D01*
G01*
X76421026Y-75989600D01*
G75*
G02*
X76111666Y-75989600I-154680J154680D01*
G01*
X75802307Y-75680241D01*
G75*
G02*
X75802307Y-75370881I154680J154680D01*
G01*
G37*
G36*
G01*
X74688614Y-74257187D02*
X75051006Y-73894794D01*
G75*
G02*
X75360366Y-73894794I154680J-154680D01*
G01*
X75669725Y-74204153D01*
G75*
G02*
X75669725Y-74513513I-154680J-154680D01*
G01*
X75307332Y-74875906D01*
G75*
G02*
X74997972Y-74875906I-154680J154680D01*
G01*
X74688613Y-74566547D01*
G75*
G02*
X74688613Y-74257187I154680J154680D01*
G01*
G37*
%TD*%
D14*
%TO.C,U8*%
X84986000Y-98920030D03*
X83716000Y-98920030D03*
X82446000Y-98920030D03*
X81176000Y-98920030D03*
X79906000Y-98920030D03*
X78636000Y-98920030D03*
X74826000Y-84279970D03*
X76096000Y-84279970D03*
X77366000Y-84279970D03*
X77366000Y-98920030D03*
X78636000Y-84279970D03*
X79906000Y-84279970D03*
X81176000Y-84279970D03*
X82446000Y-84279970D03*
X83716000Y-84279970D03*
X84986000Y-84279970D03*
X86256000Y-84279970D03*
X87526000Y-84279970D03*
X88796000Y-84279970D03*
X90066000Y-84279970D03*
X76096000Y-98920030D03*
X91336000Y-84279970D03*
X92606000Y-84279970D03*
X93876000Y-84279970D03*
X93876000Y-98920030D03*
X92606000Y-98920030D03*
X91336000Y-98920030D03*
X90066000Y-98920030D03*
X88796000Y-98920030D03*
X87526000Y-98920030D03*
X86256000Y-98920030D03*
X74826000Y-98920030D03*
%TD*%
%TO.C,D6*%
G36*
G01*
X76461893Y-107213384D02*
X76099500Y-106850992D01*
G75*
G02*
X76099500Y-106541632I154680J154680D01*
G01*
X76408859Y-106232273D01*
G75*
G02*
X76718219Y-106232273I154680J-154680D01*
G01*
X77080612Y-106594666D01*
G75*
G02*
X77080612Y-106904026I-154680J-154680D01*
G01*
X76771253Y-107213385D01*
G75*
G02*
X76461893Y-107213385I-154680J154680D01*
G01*
G37*
G36*
G01*
X75348199Y-108327078D02*
X74985806Y-107964686D01*
G75*
G02*
X74985806Y-107655326I154680J154680D01*
G01*
X75295165Y-107345967D01*
G75*
G02*
X75604525Y-107345967I154680J-154680D01*
G01*
X75966918Y-107708360D01*
G75*
G02*
X75966918Y-108017720I-154680J-154680D01*
G01*
X75657559Y-108327079D01*
G75*
G02*
X75348199Y-108327079I-154680J154680D01*
G01*
G37*
%TD*%
D15*
%TO.C,J4*%
X94710000Y-73950000D03*
X96630000Y-73950000D03*
D16*
X94370000Y-77100000D03*
X95020000Y-77100000D03*
X95670000Y-77100000D03*
X96320000Y-77100000D03*
X96970000Y-77100000D03*
D17*
X92770000Y-77220000D03*
X98520000Y-77200000D03*
D18*
X92670000Y-75900000D03*
X98620000Y-75900000D03*
D19*
X98400000Y-75150000D03*
X92920000Y-75150000D03*
%TD*%
%TO.C,D13*%
G36*
G01*
X72304105Y-103055596D02*
X71941712Y-102693204D01*
G75*
G02*
X71941712Y-102383844I154680J154680D01*
G01*
X72251071Y-102074485D01*
G75*
G02*
X72560431Y-102074485I154680J-154680D01*
G01*
X72922824Y-102436878D01*
G75*
G02*
X72922824Y-102746238I-154680J-154680D01*
G01*
X72613465Y-103055597D01*
G75*
G02*
X72304105Y-103055597I-154680J154680D01*
G01*
G37*
G36*
G01*
X71190411Y-104169290D02*
X70828018Y-103806898D01*
G75*
G02*
X70828018Y-103497538I154680J154680D01*
G01*
X71137377Y-103188179D01*
G75*
G02*
X71446737Y-103188179I154680J-154680D01*
G01*
X71809130Y-103550572D01*
G75*
G02*
X71809130Y-103859932I-154680J-154680D01*
G01*
X71499771Y-104169291D01*
G75*
G02*
X71190411Y-104169291I-154680J154680D01*
G01*
G37*
%TD*%
%TO.C,R10*%
G36*
G01*
X96942500Y-97370000D02*
X96597500Y-97370000D01*
G75*
G02*
X96450000Y-97222500I0J147500D01*
G01*
X96450000Y-96927500D01*
G75*
G02*
X96597500Y-96780000I147500J0D01*
G01*
X96942500Y-96780000D01*
G75*
G02*
X97090000Y-96927500I0J-147500D01*
G01*
X97090000Y-97222500D01*
G75*
G02*
X96942500Y-97370000I-147500J0D01*
G01*
G37*
G36*
G01*
X96942500Y-98340000D02*
X96597500Y-98340000D01*
G75*
G02*
X96450000Y-98192500I0J147500D01*
G01*
X96450000Y-97897500D01*
G75*
G02*
X96597500Y-97750000I147500J0D01*
G01*
X96942500Y-97750000D01*
G75*
G02*
X97090000Y-97897500I0J-147500D01*
G01*
X97090000Y-98192500D01*
G75*
G02*
X96942500Y-98340000I-147500J0D01*
G01*
G37*
%TD*%
%TO.C,R9*%
G36*
G01*
X98132500Y-97370000D02*
X97787500Y-97370000D01*
G75*
G02*
X97640000Y-97222500I0J147500D01*
G01*
X97640000Y-96927500D01*
G75*
G02*
X97787500Y-96780000I147500J0D01*
G01*
X98132500Y-96780000D01*
G75*
G02*
X98280000Y-96927500I0J-147500D01*
G01*
X98280000Y-97222500D01*
G75*
G02*
X98132500Y-97370000I-147500J0D01*
G01*
G37*
G36*
G01*
X98132500Y-98340000D02*
X97787500Y-98340000D01*
G75*
G02*
X97640000Y-98192500I0J147500D01*
G01*
X97640000Y-97897500D01*
G75*
G02*
X97787500Y-97750000I147500J0D01*
G01*
X98132500Y-97750000D01*
G75*
G02*
X98280000Y-97897500I0J-147500D01*
G01*
X98280000Y-98192500D01*
G75*
G02*
X98132500Y-98340000I-147500J0D01*
G01*
G37*
%TD*%
%TO.C,C22*%
G36*
G01*
X98280000Y-101637500D02*
X98280000Y-101982500D01*
G75*
G02*
X98132500Y-102130000I-147500J0D01*
G01*
X97837500Y-102130000D01*
G75*
G02*
X97690000Y-101982500I0J147500D01*
G01*
X97690000Y-101637500D01*
G75*
G02*
X97837500Y-101490000I147500J0D01*
G01*
X98132500Y-101490000D01*
G75*
G02*
X98280000Y-101637500I0J-147500D01*
G01*
G37*
G36*
G01*
X99250000Y-101637500D02*
X99250000Y-101982500D01*
G75*
G02*
X99102500Y-102130000I-147500J0D01*
G01*
X98807500Y-102130000D01*
G75*
G02*
X98660000Y-101982500I0J147500D01*
G01*
X98660000Y-101637500D01*
G75*
G02*
X98807500Y-101490000I147500J0D01*
G01*
X99102500Y-101490000D01*
G75*
G02*
X99250000Y-101637500I0J-147500D01*
G01*
G37*
%TD*%
%TO.C,C21*%
G36*
G01*
X97390000Y-101637500D02*
X97390000Y-101982500D01*
G75*
G02*
X97242500Y-102130000I-147500J0D01*
G01*
X96947500Y-102130000D01*
G75*
G02*
X96800000Y-101982500I0J147500D01*
G01*
X96800000Y-101637500D01*
G75*
G02*
X96947500Y-101490000I147500J0D01*
G01*
X97242500Y-101490000D01*
G75*
G02*
X97390000Y-101637500I0J-147500D01*
G01*
G37*
G36*
G01*
X96420000Y-101637500D02*
X96420000Y-101982500D01*
G75*
G02*
X96272500Y-102130000I-147500J0D01*
G01*
X95977500Y-102130000D01*
G75*
G02*
X95830000Y-101982500I0J147500D01*
G01*
X95830000Y-101637500D01*
G75*
G02*
X95977500Y-101490000I147500J0D01*
G01*
X96272500Y-101490000D01*
G75*
G02*
X96420000Y-101637500I0J-147500D01*
G01*
G37*
%TD*%
%TO.C,D12*%
G36*
G01*
X73343552Y-104095043D02*
X72981159Y-103732651D01*
G75*
G02*
X72981159Y-103423291I154680J154680D01*
G01*
X73290518Y-103113932D01*
G75*
G02*
X73599878Y-103113932I154680J-154680D01*
G01*
X73962271Y-103476325D01*
G75*
G02*
X73962271Y-103785685I-154680J-154680D01*
G01*
X73652912Y-104095044D01*
G75*
G02*
X73343552Y-104095044I-154680J154680D01*
G01*
G37*
G36*
G01*
X72229858Y-105208737D02*
X71867465Y-104846345D01*
G75*
G02*
X71867465Y-104536985I154680J154680D01*
G01*
X72176824Y-104227626D01*
G75*
G02*
X72486184Y-104227626I154680J-154680D01*
G01*
X72848577Y-104590019D01*
G75*
G02*
X72848577Y-104899379I-154680J-154680D01*
G01*
X72539218Y-105208738D01*
G75*
G02*
X72229858Y-105208738I-154680J154680D01*
G01*
G37*
%TD*%
%TO.C,D10*%
G36*
G01*
X74382999Y-105134490D02*
X74020606Y-104772098D01*
G75*
G02*
X74020606Y-104462738I154680J154680D01*
G01*
X74329965Y-104153379D01*
G75*
G02*
X74639325Y-104153379I154680J-154680D01*
G01*
X75001718Y-104515772D01*
G75*
G02*
X75001718Y-104825132I-154680J-154680D01*
G01*
X74692359Y-105134491D01*
G75*
G02*
X74382999Y-105134491I-154680J154680D01*
G01*
G37*
G36*
G01*
X73269305Y-106248184D02*
X72906912Y-105885792D01*
G75*
G02*
X72906912Y-105576432I154680J154680D01*
G01*
X73216271Y-105267073D01*
G75*
G02*
X73525631Y-105267073I154680J-154680D01*
G01*
X73888024Y-105629466D01*
G75*
G02*
X73888024Y-105938826I-154680J-154680D01*
G01*
X73578665Y-106248185D01*
G75*
G02*
X73269305Y-106248185I-154680J154680D01*
G01*
G37*
%TD*%
%TO.C,D8*%
G36*
G01*
X75422446Y-106173937D02*
X75060053Y-105811545D01*
G75*
G02*
X75060053Y-105502185I154680J154680D01*
G01*
X75369412Y-105192826D01*
G75*
G02*
X75678772Y-105192826I154680J-154680D01*
G01*
X76041165Y-105555219D01*
G75*
G02*
X76041165Y-105864579I-154680J-154680D01*
G01*
X75731806Y-106173938D01*
G75*
G02*
X75422446Y-106173938I-154680J154680D01*
G01*
G37*
G36*
G01*
X74308752Y-107287631D02*
X73946359Y-106925239D01*
G75*
G02*
X73946359Y-106615879I154680J154680D01*
G01*
X74255718Y-106306520D01*
G75*
G02*
X74565078Y-106306520I154680J-154680D01*
G01*
X74927471Y-106668913D01*
G75*
G02*
X74927471Y-106978273I-154680J-154680D01*
G01*
X74618112Y-107287632D01*
G75*
G02*
X74308752Y-107287632I-154680J154680D01*
G01*
G37*
%TD*%
%TO.C,R22*%
G36*
G01*
X104827500Y-99050000D02*
X105172500Y-99050000D01*
G75*
G02*
X105320000Y-99197500I0J-147500D01*
G01*
X105320000Y-99492500D01*
G75*
G02*
X105172500Y-99640000I-147500J0D01*
G01*
X104827500Y-99640000D01*
G75*
G02*
X104680000Y-99492500I0J147500D01*
G01*
X104680000Y-99197500D01*
G75*
G02*
X104827500Y-99050000I147500J0D01*
G01*
G37*
G36*
G01*
X104827500Y-98080000D02*
X105172500Y-98080000D01*
G75*
G02*
X105320000Y-98227500I0J-147500D01*
G01*
X105320000Y-98522500D01*
G75*
G02*
X105172500Y-98670000I-147500J0D01*
G01*
X104827500Y-98670000D01*
G75*
G02*
X104680000Y-98522500I0J147500D01*
G01*
X104680000Y-98227500D01*
G75*
G02*
X104827500Y-98080000I147500J0D01*
G01*
G37*
%TD*%
%TO.C,C17*%
G36*
G01*
X97422500Y-87360000D02*
X97077500Y-87360000D01*
G75*
G02*
X96930000Y-87212500I0J147500D01*
G01*
X96930000Y-86917500D01*
G75*
G02*
X97077500Y-86770000I147500J0D01*
G01*
X97422500Y-86770000D01*
G75*
G02*
X97570000Y-86917500I0J-147500D01*
G01*
X97570000Y-87212500D01*
G75*
G02*
X97422500Y-87360000I-147500J0D01*
G01*
G37*
G36*
G01*
X97422500Y-88330000D02*
X97077500Y-88330000D01*
G75*
G02*
X96930000Y-88182500I0J147500D01*
G01*
X96930000Y-87887500D01*
G75*
G02*
X97077500Y-87740000I147500J0D01*
G01*
X97422500Y-87740000D01*
G75*
G02*
X97570000Y-87887500I0J-147500D01*
G01*
X97570000Y-88182500D01*
G75*
G02*
X97422500Y-88330000I-147500J0D01*
G01*
G37*
%TD*%
%TO.C,C15*%
G36*
G01*
X102317500Y-87370000D02*
X102662500Y-87370000D01*
G75*
G02*
X102810000Y-87517500I0J-147500D01*
G01*
X102810000Y-87812500D01*
G75*
G02*
X102662500Y-87960000I-147500J0D01*
G01*
X102317500Y-87960000D01*
G75*
G02*
X102170000Y-87812500I0J147500D01*
G01*
X102170000Y-87517500D01*
G75*
G02*
X102317500Y-87370000I147500J0D01*
G01*
G37*
G36*
G01*
X102317500Y-86400000D02*
X102662500Y-86400000D01*
G75*
G02*
X102810000Y-86547500I0J-147500D01*
G01*
X102810000Y-86842500D01*
G75*
G02*
X102662500Y-86990000I-147500J0D01*
G01*
X102317500Y-86990000D01*
G75*
G02*
X102170000Y-86842500I0J147500D01*
G01*
X102170000Y-86547500D01*
G75*
G02*
X102317500Y-86400000I147500J0D01*
G01*
G37*
%TD*%
D20*
%TO.C,U9*%
X109210000Y-86990000D03*
D21*
X104985000Y-84062650D03*
X105635001Y-84062650D03*
X106285000Y-84062650D03*
X106935001Y-84062650D03*
X107584999Y-84062650D03*
X108235001Y-84062650D03*
X108884999Y-84062650D03*
X109535001Y-84062650D03*
X110184999Y-84062650D03*
X110835001Y-84062650D03*
X111484999Y-84062650D03*
X112135000Y-84062650D03*
X112784999Y-84062650D03*
X113435000Y-84062650D03*
X113434998Y-89917350D03*
X112784999Y-89917350D03*
X112134998Y-89917350D03*
X111484999Y-89917350D03*
X110834998Y-89917350D03*
X110184999Y-89917350D03*
X109534998Y-89917350D03*
X108884999Y-89917350D03*
X108235001Y-89917350D03*
X107584999Y-89917350D03*
X106935001Y-89917350D03*
X106285000Y-89917350D03*
X105635001Y-89917350D03*
X104985000Y-89917350D03*
%TD*%
D22*
%TO.C,Y1*%
X108015000Y-92300000D03*
X108015000Y-94400000D03*
X106365000Y-94400000D03*
X106365000Y-92300000D03*
%TD*%
D23*
%TO.C,SW1*%
X102880000Y-98230000D03*
X102880000Y-101630000D03*
%TD*%
%TO.C,R19*%
G36*
G01*
X109187500Y-92470000D02*
X109532500Y-92470000D01*
G75*
G02*
X109680000Y-92617500I0J-147500D01*
G01*
X109680000Y-92912500D01*
G75*
G02*
X109532500Y-93060000I-147500J0D01*
G01*
X109187500Y-93060000D01*
G75*
G02*
X109040000Y-92912500I0J147500D01*
G01*
X109040000Y-92617500D01*
G75*
G02*
X109187500Y-92470000I147500J0D01*
G01*
G37*
G36*
G01*
X109187500Y-91500000D02*
X109532500Y-91500000D01*
G75*
G02*
X109680000Y-91647500I0J-147500D01*
G01*
X109680000Y-91942500D01*
G75*
G02*
X109532500Y-92090000I-147500J0D01*
G01*
X109187500Y-92090000D01*
G75*
G02*
X109040000Y-91942500I0J147500D01*
G01*
X109040000Y-91647500D01*
G75*
G02*
X109187500Y-91500000I147500J0D01*
G01*
G37*
%TD*%
%TO.C,R18*%
G36*
G01*
X110312500Y-82010000D02*
X109967500Y-82010000D01*
G75*
G02*
X109820000Y-81862500I0J147500D01*
G01*
X109820000Y-81567500D01*
G75*
G02*
X109967500Y-81420000I147500J0D01*
G01*
X110312500Y-81420000D01*
G75*
G02*
X110460000Y-81567500I0J-147500D01*
G01*
X110460000Y-81862500D01*
G75*
G02*
X110312500Y-82010000I-147500J0D01*
G01*
G37*
G36*
G01*
X110312500Y-82980000D02*
X109967500Y-82980000D01*
G75*
G02*
X109820000Y-82832500I0J147500D01*
G01*
X109820000Y-82537500D01*
G75*
G02*
X109967500Y-82390000I147500J0D01*
G01*
X110312500Y-82390000D01*
G75*
G02*
X110460000Y-82537500I0J-147500D01*
G01*
X110460000Y-82832500D01*
G75*
G02*
X110312500Y-82980000I-147500J0D01*
G01*
G37*
%TD*%
%TO.C,R17*%
G36*
G01*
X104662500Y-82010000D02*
X104317500Y-82010000D01*
G75*
G02*
X104170000Y-81862500I0J147500D01*
G01*
X104170000Y-81567500D01*
G75*
G02*
X104317500Y-81420000I147500J0D01*
G01*
X104662500Y-81420000D01*
G75*
G02*
X104810000Y-81567500I0J-147500D01*
G01*
X104810000Y-81862500D01*
G75*
G02*
X104662500Y-82010000I-147500J0D01*
G01*
G37*
G36*
G01*
X104662500Y-82980000D02*
X104317500Y-82980000D01*
G75*
G02*
X104170000Y-82832500I0J147500D01*
G01*
X104170000Y-82537500D01*
G75*
G02*
X104317500Y-82390000I147500J0D01*
G01*
X104662500Y-82390000D01*
G75*
G02*
X104810000Y-82537500I0J-147500D01*
G01*
X104810000Y-82832500D01*
G75*
G02*
X104662500Y-82980000I-147500J0D01*
G01*
G37*
%TD*%
%TO.C,R16*%
G36*
G01*
X112745000Y-91147500D02*
X112745000Y-91492500D01*
G75*
G02*
X112597500Y-91640000I-147500J0D01*
G01*
X112302500Y-91640000D01*
G75*
G02*
X112155000Y-91492500I0J147500D01*
G01*
X112155000Y-91147500D01*
G75*
G02*
X112302500Y-91000000I147500J0D01*
G01*
X112597500Y-91000000D01*
G75*
G02*
X112745000Y-91147500I0J-147500D01*
G01*
G37*
G36*
G01*
X113715000Y-91147500D02*
X113715000Y-91492500D01*
G75*
G02*
X113567500Y-91640000I-147500J0D01*
G01*
X113272500Y-91640000D01*
G75*
G02*
X113125000Y-91492500I0J147500D01*
G01*
X113125000Y-91147500D01*
G75*
G02*
X113272500Y-91000000I147500J0D01*
G01*
X113567500Y-91000000D01*
G75*
G02*
X113715000Y-91147500I0J-147500D01*
G01*
G37*
%TD*%
%TO.C,R15*%
G36*
G01*
X113227500Y-82390000D02*
X113572500Y-82390000D01*
G75*
G02*
X113720000Y-82537500I0J-147500D01*
G01*
X113720000Y-82832500D01*
G75*
G02*
X113572500Y-82980000I-147500J0D01*
G01*
X113227500Y-82980000D01*
G75*
G02*
X113080000Y-82832500I0J147500D01*
G01*
X113080000Y-82537500D01*
G75*
G02*
X113227500Y-82390000I147500J0D01*
G01*
G37*
G36*
G01*
X113227500Y-81420000D02*
X113572500Y-81420000D01*
G75*
G02*
X113720000Y-81567500I0J-147500D01*
G01*
X113720000Y-81862500D01*
G75*
G02*
X113572500Y-82010000I-147500J0D01*
G01*
X113227500Y-82010000D01*
G75*
G02*
X113080000Y-81862500I0J147500D01*
G01*
X113080000Y-81567500D01*
G75*
G02*
X113227500Y-81420000I147500J0D01*
G01*
G37*
%TD*%
%TO.C,R14*%
G36*
G01*
X112137500Y-82390000D02*
X112482500Y-82390000D01*
G75*
G02*
X112630000Y-82537500I0J-147500D01*
G01*
X112630000Y-82832500D01*
G75*
G02*
X112482500Y-82980000I-147500J0D01*
G01*
X112137500Y-82980000D01*
G75*
G02*
X111990000Y-82832500I0J147500D01*
G01*
X111990000Y-82537500D01*
G75*
G02*
X112137500Y-82390000I147500J0D01*
G01*
G37*
G36*
G01*
X112137500Y-81420000D02*
X112482500Y-81420000D01*
G75*
G02*
X112630000Y-81567500I0J-147500D01*
G01*
X112630000Y-81862500D01*
G75*
G02*
X112482500Y-82010000I-147500J0D01*
G01*
X112137500Y-82010000D01*
G75*
G02*
X111990000Y-81862500I0J147500D01*
G01*
X111990000Y-81567500D01*
G75*
G02*
X112137500Y-81420000I147500J0D01*
G01*
G37*
%TD*%
%TO.C,R30*%
G36*
G01*
X94417500Y-81210000D02*
X94762500Y-81210000D01*
G75*
G02*
X94910000Y-81357500I0J-147500D01*
G01*
X94910000Y-81652500D01*
G75*
G02*
X94762500Y-81800000I-147500J0D01*
G01*
X94417500Y-81800000D01*
G75*
G02*
X94270000Y-81652500I0J147500D01*
G01*
X94270000Y-81357500D01*
G75*
G02*
X94417500Y-81210000I147500J0D01*
G01*
G37*
G36*
G01*
X94417500Y-80240000D02*
X94762500Y-80240000D01*
G75*
G02*
X94910000Y-80387500I0J-147500D01*
G01*
X94910000Y-80682500D01*
G75*
G02*
X94762500Y-80830000I-147500J0D01*
G01*
X94417500Y-80830000D01*
G75*
G02*
X94270000Y-80682500I0J147500D01*
G01*
X94270000Y-80387500D01*
G75*
G02*
X94417500Y-80240000I147500J0D01*
G01*
G37*
%TD*%
%TO.C,R29*%
G36*
G01*
X95597500Y-81210000D02*
X95942500Y-81210000D01*
G75*
G02*
X96090000Y-81357500I0J-147500D01*
G01*
X96090000Y-81652500D01*
G75*
G02*
X95942500Y-81800000I-147500J0D01*
G01*
X95597500Y-81800000D01*
G75*
G02*
X95450000Y-81652500I0J147500D01*
G01*
X95450000Y-81357500D01*
G75*
G02*
X95597500Y-81210000I147500J0D01*
G01*
G37*
G36*
G01*
X95597500Y-80240000D02*
X95942500Y-80240000D01*
G75*
G02*
X96090000Y-80387500I0J-147500D01*
G01*
X96090000Y-80682500D01*
G75*
G02*
X95942500Y-80830000I-147500J0D01*
G01*
X95597500Y-80830000D01*
G75*
G02*
X95450000Y-80682500I0J147500D01*
G01*
X95450000Y-80387500D01*
G75*
G02*
X95597500Y-80240000I147500J0D01*
G01*
G37*
%TD*%
%TO.C,R26*%
G36*
G01*
X80712500Y-81150000D02*
X80367500Y-81150000D01*
G75*
G02*
X80220000Y-81002500I0J147500D01*
G01*
X80220000Y-80707500D01*
G75*
G02*
X80367500Y-80560000I147500J0D01*
G01*
X80712500Y-80560000D01*
G75*
G02*
X80860000Y-80707500I0J-147500D01*
G01*
X80860000Y-81002500D01*
G75*
G02*
X80712500Y-81150000I-147500J0D01*
G01*
G37*
G36*
G01*
X80712500Y-82120000D02*
X80367500Y-82120000D01*
G75*
G02*
X80220000Y-81972500I0J147500D01*
G01*
X80220000Y-81677500D01*
G75*
G02*
X80367500Y-81530000I147500J0D01*
G01*
X80712500Y-81530000D01*
G75*
G02*
X80860000Y-81677500I0J-147500D01*
G01*
X80860000Y-81972500D01*
G75*
G02*
X80712500Y-82120000I-147500J0D01*
G01*
G37*
%TD*%
D24*
%TO.C,Q1*%
X82770000Y-80240000D03*
X83720000Y-82240000D03*
X81820000Y-82240000D03*
%TD*%
%TO.C,C20*%
G36*
G01*
X99280000Y-89057500D02*
X99280000Y-89402500D01*
G75*
G02*
X99132500Y-89550000I-147500J0D01*
G01*
X98837500Y-89550000D01*
G75*
G02*
X98690000Y-89402500I0J147500D01*
G01*
X98690000Y-89057500D01*
G75*
G02*
X98837500Y-88910000I147500J0D01*
G01*
X99132500Y-88910000D01*
G75*
G02*
X99280000Y-89057500I0J-147500D01*
G01*
G37*
G36*
G01*
X100250000Y-89057500D02*
X100250000Y-89402500D01*
G75*
G02*
X100102500Y-89550000I-147500J0D01*
G01*
X99807500Y-89550000D01*
G75*
G02*
X99660000Y-89402500I0J147500D01*
G01*
X99660000Y-89057500D01*
G75*
G02*
X99807500Y-88910000I147500J0D01*
G01*
X100102500Y-88910000D01*
G75*
G02*
X100250000Y-89057500I0J-147500D01*
G01*
G37*
%TD*%
%TO.C,C36*%
G36*
G01*
X109532500Y-93950000D02*
X109187500Y-93950000D01*
G75*
G02*
X109040000Y-93802500I0J147500D01*
G01*
X109040000Y-93507500D01*
G75*
G02*
X109187500Y-93360000I147500J0D01*
G01*
X109532500Y-93360000D01*
G75*
G02*
X109680000Y-93507500I0J-147500D01*
G01*
X109680000Y-93802500D01*
G75*
G02*
X109532500Y-93950000I-147500J0D01*
G01*
G37*
G36*
G01*
X109532500Y-94920000D02*
X109187500Y-94920000D01*
G75*
G02*
X109040000Y-94772500I0J147500D01*
G01*
X109040000Y-94477500D01*
G75*
G02*
X109187500Y-94330000I147500J0D01*
G01*
X109532500Y-94330000D01*
G75*
G02*
X109680000Y-94477500I0J-147500D01*
G01*
X109680000Y-94772500D01*
G75*
G02*
X109532500Y-94920000I-147500J0D01*
G01*
G37*
%TD*%
%TO.C,C35*%
G36*
G01*
X105192500Y-92090000D02*
X104847500Y-92090000D01*
G75*
G02*
X104700000Y-91942500I0J147500D01*
G01*
X104700000Y-91647500D01*
G75*
G02*
X104847500Y-91500000I147500J0D01*
G01*
X105192500Y-91500000D01*
G75*
G02*
X105340000Y-91647500I0J-147500D01*
G01*
X105340000Y-91942500D01*
G75*
G02*
X105192500Y-92090000I-147500J0D01*
G01*
G37*
G36*
G01*
X105192500Y-93060000D02*
X104847500Y-93060000D01*
G75*
G02*
X104700000Y-92912500I0J147500D01*
G01*
X104700000Y-92617500D01*
G75*
G02*
X104847500Y-92470000I147500J0D01*
G01*
X105192500Y-92470000D01*
G75*
G02*
X105340000Y-92617500I0J-147500D01*
G01*
X105340000Y-92912500D01*
G75*
G02*
X105192500Y-93060000I-147500J0D01*
G01*
G37*
%TD*%
%TO.C,C34*%
G36*
G01*
X111392500Y-82010000D02*
X111047500Y-82010000D01*
G75*
G02*
X110900000Y-81862500I0J147500D01*
G01*
X110900000Y-81567500D01*
G75*
G02*
X111047500Y-81420000I147500J0D01*
G01*
X111392500Y-81420000D01*
G75*
G02*
X111540000Y-81567500I0J-147500D01*
G01*
X111540000Y-81862500D01*
G75*
G02*
X111392500Y-82010000I-147500J0D01*
G01*
G37*
G36*
G01*
X111392500Y-82980000D02*
X111047500Y-82980000D01*
G75*
G02*
X110900000Y-82832500I0J147500D01*
G01*
X110900000Y-82537500D01*
G75*
G02*
X111047500Y-82390000I147500J0D01*
G01*
X111392500Y-82390000D01*
G75*
G02*
X111540000Y-82537500I0J-147500D01*
G01*
X111540000Y-82832500D01*
G75*
G02*
X111392500Y-82980000I-147500J0D01*
G01*
G37*
%TD*%
%TO.C,C33*%
G36*
G01*
X108132500Y-82010000D02*
X107787500Y-82010000D01*
G75*
G02*
X107640000Y-81862500I0J147500D01*
G01*
X107640000Y-81567500D01*
G75*
G02*
X107787500Y-81420000I147500J0D01*
G01*
X108132500Y-81420000D01*
G75*
G02*
X108280000Y-81567500I0J-147500D01*
G01*
X108280000Y-81862500D01*
G75*
G02*
X108132500Y-82010000I-147500J0D01*
G01*
G37*
G36*
G01*
X108132500Y-82980000D02*
X107787500Y-82980000D01*
G75*
G02*
X107640000Y-82832500I0J147500D01*
G01*
X107640000Y-82537500D01*
G75*
G02*
X107787500Y-82390000I147500J0D01*
G01*
X108132500Y-82390000D01*
G75*
G02*
X108280000Y-82537500I0J-147500D01*
G01*
X108280000Y-82832500D01*
G75*
G02*
X108132500Y-82980000I-147500J0D01*
G01*
G37*
%TD*%
%TO.C,C32*%
G36*
G01*
X104252500Y-90230000D02*
X103907500Y-90230000D01*
G75*
G02*
X103760000Y-90082500I0J147500D01*
G01*
X103760000Y-89787500D01*
G75*
G02*
X103907500Y-89640000I147500J0D01*
G01*
X104252500Y-89640000D01*
G75*
G02*
X104400000Y-89787500I0J-147500D01*
G01*
X104400000Y-90082500D01*
G75*
G02*
X104252500Y-90230000I-147500J0D01*
G01*
G37*
G36*
G01*
X104252500Y-91200000D02*
X103907500Y-91200000D01*
G75*
G02*
X103760000Y-91052500I0J147500D01*
G01*
X103760000Y-90757500D01*
G75*
G02*
X103907500Y-90610000I147500J0D01*
G01*
X104252500Y-90610000D01*
G75*
G02*
X104400000Y-90757500I0J-147500D01*
G01*
X104400000Y-91052500D01*
G75*
G02*
X104252500Y-91200000I-147500J0D01*
G01*
G37*
%TD*%
%TO.C,C31*%
G36*
G01*
X108877500Y-82390000D02*
X109222500Y-82390000D01*
G75*
G02*
X109370000Y-82537500I0J-147500D01*
G01*
X109370000Y-82832500D01*
G75*
G02*
X109222500Y-82980000I-147500J0D01*
G01*
X108877500Y-82980000D01*
G75*
G02*
X108730000Y-82832500I0J147500D01*
G01*
X108730000Y-82537500D01*
G75*
G02*
X108877500Y-82390000I147500J0D01*
G01*
G37*
G36*
G01*
X108877500Y-81420000D02*
X109222500Y-81420000D01*
G75*
G02*
X109370000Y-81567500I0J-147500D01*
G01*
X109370000Y-81862500D01*
G75*
G02*
X109222500Y-82010000I-147500J0D01*
G01*
X108877500Y-82010000D01*
G75*
G02*
X108730000Y-81862500I0J147500D01*
G01*
X108730000Y-81567500D01*
G75*
G02*
X108877500Y-81420000I147500J0D01*
G01*
G37*
%TD*%
%TO.C,C30*%
G36*
G01*
X106697500Y-82390000D02*
X107042500Y-82390000D01*
G75*
G02*
X107190000Y-82537500I0J-147500D01*
G01*
X107190000Y-82832500D01*
G75*
G02*
X107042500Y-82980000I-147500J0D01*
G01*
X106697500Y-82980000D01*
G75*
G02*
X106550000Y-82832500I0J147500D01*
G01*
X106550000Y-82537500D01*
G75*
G02*
X106697500Y-82390000I147500J0D01*
G01*
G37*
G36*
G01*
X106697500Y-81420000D02*
X107042500Y-81420000D01*
G75*
G02*
X107190000Y-81567500I0J-147500D01*
G01*
X107190000Y-81862500D01*
G75*
G02*
X107042500Y-82010000I-147500J0D01*
G01*
X106697500Y-82010000D01*
G75*
G02*
X106550000Y-81862500I0J147500D01*
G01*
X106550000Y-81567500D01*
G75*
G02*
X106697500Y-81420000I147500J0D01*
G01*
G37*
%TD*%
%TO.C,C29*%
G36*
G01*
X105507500Y-82390000D02*
X105852500Y-82390000D01*
G75*
G02*
X106000000Y-82537500I0J-147500D01*
G01*
X106000000Y-82832500D01*
G75*
G02*
X105852500Y-82980000I-147500J0D01*
G01*
X105507500Y-82980000D01*
G75*
G02*
X105360000Y-82832500I0J147500D01*
G01*
X105360000Y-82537500D01*
G75*
G02*
X105507500Y-82390000I147500J0D01*
G01*
G37*
G36*
G01*
X105507500Y-81420000D02*
X105852500Y-81420000D01*
G75*
G02*
X106000000Y-81567500I0J-147500D01*
G01*
X106000000Y-81862500D01*
G75*
G02*
X105852500Y-82010000I-147500J0D01*
G01*
X105507500Y-82010000D01*
G75*
G02*
X105360000Y-81862500I0J147500D01*
G01*
X105360000Y-81567500D01*
G75*
G02*
X105507500Y-81420000I147500J0D01*
G01*
G37*
%TD*%
%TO.C,C16*%
G36*
G01*
X97077500Y-85630000D02*
X97422500Y-85630000D01*
G75*
G02*
X97570000Y-85777500I0J-147500D01*
G01*
X97570000Y-86072500D01*
G75*
G02*
X97422500Y-86220000I-147500J0D01*
G01*
X97077500Y-86220000D01*
G75*
G02*
X96930000Y-86072500I0J147500D01*
G01*
X96930000Y-85777500D01*
G75*
G02*
X97077500Y-85630000I147500J0D01*
G01*
G37*
G36*
G01*
X97077500Y-84660000D02*
X97422500Y-84660000D01*
G75*
G02*
X97570000Y-84807500I0J-147500D01*
G01*
X97570000Y-85102500D01*
G75*
G02*
X97422500Y-85250000I-147500J0D01*
G01*
X97077500Y-85250000D01*
G75*
G02*
X96930000Y-85102500I0J147500D01*
G01*
X96930000Y-84807500D01*
G75*
G02*
X97077500Y-84660000I147500J0D01*
G01*
G37*
%TD*%
M02*
